<svg xmlns="http://www.w3.org/2000/svg" viewBox="0 0 147.41 166.11"><defs><style>.cls-1{fill:#f2d22f;}.cls-2{fill:#fff;}.cls-3,.cls-4{fill:none;stroke:#000;stroke-width:14.83px;}.cls-3{stroke-linecap:round;stroke-linejoin:round;}.cls-4{stroke-miterlimit:10;}</style></defs><title>jbx-logo-no-text</title><g id="Layer_2" data-name="Layer 2"><g id="Layer_1-2" data-name="Layer 1"><path class="cls-1" d="M0,46.73,67.94,11.47V80.18Z"/><path class="cls-1" d="M141.77,124.49,73.94,160l-.21-68.73Z"/><path class="cls-2" d="M80.77,88.55,69.6,155.74,12.94,124,12.73,55.3Z"/><path class="cls-2" d="M138.77,43.33l-1.28,72.72L70.94,78.79l-.21-68.72Z"/><path class="cls-3" d="M8.44,45.57l.23,75.58,65.5,37.55,65.27-37.95-.21-49.18"/><path class="cls-3" d="M139.47,41.48,74.1,7.41,8.64,45.47"/><path class="cls-4" d="M8.64,45.48,140,120.81"/><path class="cls-4" d="M74.44,157.08l-.22-147"/><path class="cls-3" d="M134.08,76.26,102.45,59.44"/><path class="cls-3" d="M139.44,41.57l.55,39"/><path class="cls-3" d="M38.69,102,13.62,88.66"/></g></g></svg>